<svg width="200" height="200" viewBox="0 0 200 200" fill="none" xmlns="http://www.w3.org/2000/svg">
<rect x="15" y="29" width="170" height="143" fill="white"/>
<path d="M177.778 0H22.2222C10 0 0 10 0 22.2222V177.778C0 190 10 200 22.2222 200H177.778C190 200 200 190 200 177.778V22.2222C200 10 190 0 177.778 0ZM88.8889 55.5556H66.6667V77.7778C66.6667 90 56.6667 100 44.4444 100C56.6667 100 66.6667 110 66.6667 122.222V144.444H88.8889V166.667H66.6667C54.4444 166.667 44.4444 156.667 44.4444 144.444V133.333C44.4444 121.111 34.4444 111.111 22.2222 111.111V88.8889C34.4444 88.8889 44.4444 78.8889 44.4444 66.6667V55.5556C44.4444 43.3333 54.4444 33.3333 66.6667 33.3333H88.8889V55.5556ZM177.778 111.111C165.556 111.111 155.556 121.111 155.556 133.333V144.444C155.556 156.667 145.556 166.667 133.333 166.667H111.111V144.444H133.333V122.222C133.333 110 143.333 100 155.556 100C143.333 100 133.333 90 133.333 77.7778V55.5556H111.111V33.3333H133.333C145.556 33.3333 155.556 43.3333 155.556 55.5556V66.6667C155.556 78.8889 165.556 88.8889 177.778 88.8889V111.111Z" fill="#24292F"/>
</svg>
